<?xml version="1.0" encoding="utf-8"?>
<!-- Generator: Adobe Illustrator 22.1.0, SVG Export Plug-In . SVG Version: 6.00 Build 0)  -->
<svg version="1.1" id="图层_1" xmlns="http://www.w3.org/2000/svg" xmlns:xlink="http://www.w3.org/1999/xlink" x="0px" y="0px"
	 viewBox="0 0 32 32" style="enable-background:new 0 0 32 32;" xml:space="preserve">
<style type="text/css">
	.st0{fill:#8E8E8F;}
</style>
<path class="st0" d="M27.3,23.6L27.3,23.6L27.3,23.6L27.3,23.6z"/>
<path class="st0" d="M29,16c0-7.2-5.8-13-13-13C8.8,3,3,8.8,3,16c0,7.2,5.8,13,13,13C23.2,29,29,23.2,29,16 M16,27.1
	c-6.1,0-11.1-5-11.1-11.1c0-6.1,5-11.1,11.1-11.1c6.1,0,11.1,5,11.1,11.1C27.1,22.1,22.1,27.1,16,27.1"/>
<path class="st0" d="M21.3,20.1l-4-4l4-4c0.4-0.4,0.4-0.9,0-1.3c-0.4-0.4-0.9-0.4-1.3,0l-4,4l-4-4c-0.4-0.4-0.9-0.4-1.3,0
	c-0.4,0.4-0.4,1,0,1.3l4,4l-4,3.9c-0.4,0.4-0.4,0.9,0,1.3c0.2,0.2,0.4,0.3,0.7,0.3c0.2,0,0.5-0.1,0.7-0.3l4-3.9l4,4
	c0.2,0.2,0.4,0.3,0.7,0.3c0.2,0,0.5-0.1,0.7-0.3C21.7,21,21.7,20.4,21.3,20.1"/>
</svg>
